<?xml version="1.0" standalone="no"?>
<!DOCTYPE svg PUBLIC "-//W3C//DTD SVG 20010904//EN"
 "http://www.w3.org/TR/2001/REC-SVG-20010904/DTD/svg10.dtd">
<svg version="1.0" xmlns="http://www.w3.org/2000/svg"
 width="512.000000pt" height="512.000000pt" viewBox="0 0 512.000000 512.000000"
 preserveAspectRatio="xMidYMid meet">
<metadata>
Created by potrace 1.14, written by Peter Selinger 2001-2017
</metadata>
<g transform="translate(0.000000,512.000000) scale(0.100000,-0.100000)"
fill="#000000" stroke="none">
<path d="M2320 5048 c-524 -60 -945 -234 -1345 -557 -106 -85 -307 -289 -371
-376 -16 -22 -32 -42 -35 -45 -14 -12 -121 -173 -167 -253 -118 -200 -226
-465 -267 -657 -58 -263 -70 -366 -70 -595 0 -135 8 -286 19 -340 2 -11 7 -42
10 -70 12 -82 62 -284 96 -386 251 -746 835 -1330 1580 -1579 86 -29 217 -64
280 -76 14 -2 45 -9 70 -14 192 -40 564 -47 780 -16 156 23 285 53 416 95 953
306 1622 1128 1731 2128 15 137 8 498 -11 603 -3 14 -12 66 -21 117 -24 140
-71 293 -98 321 -42 41 -89 40 -219 -8 -176 -64 -193 -91 -152 -251 67 -260
87 -595 49 -819 -29 -175 -47 -247 -93 -380 -83 -239 -190 -428 -367 -650 -48
-60 -237 -242 -315 -302 -302 -233 -670 -380 -1060 -423 -63 -7 -343 -8 -380
-1 -14 3 -52 7 -85 11 -33 3 -78 10 -100 15 -22 5 -51 11 -65 13 -131 24 -307
86 -465 162 -431 208 -773 558 -973 995 -55 120 -123 323 -137 410 -3 19 -10
53 -15 75 -5 22 -12 67 -15 100 -4 33 -9 69 -11 80 -6 30 -6 323 1 378 3 26 8
65 10 85 3 20 8 53 11 72 2 19 6 42 9 50 2 8 7 29 10 46 24 146 127 408 234
594 25 45 130 200 140 210 4 3 19 23 36 45 44 60 240 254 321 318 310 243 687
395 1079 434 85 9 319 8 400 -1 109 -11 245 -37 333 -63 112 -33 156 -38 192
-23 38 16 52 38 101 167 68 181 40 235 -149 278 -9 2 -42 11 -72 19 -30 8 -71
18 -90 21 -19 3 -42 8 -50 10 -29 8 -108 19 -240 34 -91 10 -380 10 -470 -1z"/>
<path d="M4090 4709 c-54 -21 -65 -52 -68 -196 l-4 -133 -117 0 c-196 0 -216
-17 -216 -182 l0 -108 33 -32 32 -33 134 -3 134 -4 4 -134 3 -134 33 -32 c31
-32 36 -33 126 -36 169 -7 196 23 196 217 l0 121 121 0 c194 0 224 27 217 196
-3 90 -4 95 -36 126 l-32 33 -135 3 -135 4 0 120 c0 139 -12 177 -65 202 -37
18 -183 21 -225 5z"/>
<path d="M1349 3137 c-63 -23 -130 -67 -170 -111 -40 -44 -85 -132 -97 -191
-7 -30 -11 -200 -11 -410 -1 -324 1 -364 16 -395 37 -72 132 -90 188 -34 33
32 35 44 38 209 l2 140 155 0 c85 1 161 -1 168 -3 9 -3 12 -42 12 -149 0 -163
8 -190 64 -217 45 -21 74 -20 114 4 61 37 63 51 62 454 -1 383 -4 417 -49 505
-29 56 -102 134 -155 165 -97 56 -237 70 -337 33z m227 -249 c56 -38 72 -85
70 -202 l-1 -101 -155 -1 c-85 0 -161 2 -167 4 -9 3 -13 31 -12 96 1 128 24
180 95 217 49 25 122 20 170 -13z"/>
<path d="M2451 3145 c-147 -41 -257 -161 -290 -315 -6 -25 -10 -149 -10 -276
0 -300 13 -353 115 -463 84 -91 185 -132 313 -127 104 4 178 35 257 106 99 90
133 185 130 367 -1 105 -4 122 -24 155 -13 21 -42 49 -64 62 -35 21 -53 24
-146 25 -119 2 -163 -14 -182 -65 -38 -98 22 -174 135 -174 l46 0 -2 -52 c-3
-69 -20 -108 -63 -146 -64 -56 -151 -55 -216 4 -21 19 -43 48 -49 65 -16 47
-13 461 4 502 45 108 170 137 268 61 24 -19 57 -38 73 -43 69 -19 144 43 144
120 0 31 -8 48 -37 80 -97 108 -259 153 -402 114z"/>
<path d="M3433 3139 c-66 -25 -145 -100 -175 -164 -22 -49 -23 -58 -25 -398
-1 -324 0 -352 19 -407 24 -74 93 -150 163 -182 48 -22 60 -23 308 -23 l259 0
29 32 c51 58 51 108 0 166 l-29 32 -237 5 c-287 6 -272 -2 -274 144 l-1 95
254 3 c251 3 255 3 279 26 57 54 57 130 1 183 -26 24 -26 24 -280 27 l-255 3
2 96 c1 86 4 99 25 120 23 23 26 23 242 23 211 0 220 1 253 23 38 26 64 84 55
122 -4 14 -19 40 -35 58 l-29 32 -249 2 c-226 2 -253 0 -300 -18z"/>
</g>
</svg>
